<svg width="123" height="123" viewBox="0 0 123 123" fill="none" xmlns="http://www.w3.org/2000/svg">
<path d="M31.7494 6.09627C36.9921 2.12579 43.3923 -0.0157064 49.9688 8.67299e-05C51.8137 8.67299e-05 53.2821 0.961024 54.1354 1.62215C55.0886 2.37552 55.9804 3.33646 56.7799 4.2974C57.3468 4.98592 57.6566 5.85015 57.6562 6.74202V34.5938H49.3153C48.4086 32.0292 46.6244 29.8677 44.2782 28.4914C41.9319 27.115 39.1746 26.6124 36.4936 27.0724C33.8126 27.5324 31.3805 28.9254 29.6272 31.0051C27.8739 33.0848 26.9123 35.7174 26.9123 38.4376C26.9123 41.1578 27.8739 43.7904 29.6272 45.8701C31.3805 47.9498 33.8126 49.3428 36.4936 49.8028C39.1746 50.2628 41.9319 49.7602 44.2782 48.3838C46.6244 47.0074 48.4086 44.8459 49.3153 42.2813H57.6562V114.659C57.6566 115.228 57.5306 115.79 57.2873 116.305C57.0441 116.819 56.6896 117.273 56.2494 117.634C52.6978 120.54 47.9469 123 42.2812 123C33.1639 123 26.3758 118.403 21.9863 112.906C18.8325 108.99 16.6725 104.369 15.6902 99.4379C12.7034 98.6416 9.93417 97.1834 7.58756 95.1713C3.34406 91.5352 0 85.6388 0 76.8751C0 72.5932 0.284437 68.7263 0.922499 65.3438H24.9844C29.8736 65.3438 33.9019 68.9954 34.5169 73.7155C31.9604 74.6407 29.813 76.4395 28.4539 78.7941C27.0948 81.1488 26.6114 83.908 27.089 86.5845C27.5667 89.2609 28.9747 91.6826 31.0644 93.4218C33.1541 95.161 35.7911 96.1059 38.5098 96.0896C41.2286 96.0734 43.8541 95.097 45.9229 93.333C47.9917 91.5689 49.3706 89.1306 49.8162 86.4486C50.2619 83.7667 49.7455 81.0135 48.3584 78.6752C46.9712 76.3369 44.8025 74.564 42.2351 73.6694C41.9111 69.316 39.953 65.2461 36.7535 62.2762C33.554 59.3062 29.3498 57.6559 24.9844 57.6563H3.39019C4.56637 55.3655 6.14231 53.4282 8.19487 52.0521C8.71407 51.7084 9.25893 51.4052 9.82463 51.145C7.64138 44.749 8.21025 37.2614 10.3166 31.3805C11.6619 27.5982 13.7991 24.0235 16.7357 21.6404C18.6729 20.0645 20.9792 19.0266 23.5007 18.8268C24.6077 13.5762 27.7211 9.23277 31.7571 6.09627H31.7494ZM65.3438 96.0938H71.1094C75.6968 96.0938 80.0963 94.2715 83.3401 91.0277C86.5839 87.7839 88.4062 83.3844 88.4062 78.797V64.6904C90.9709 63.7837 93.1323 61.9995 94.5087 59.6532C95.8851 57.307 96.3877 54.5497 95.9277 51.8687C95.4677 49.1877 94.0747 46.7556 91.995 45.0023C89.9153 43.249 87.2827 42.2874 84.5625 42.2874C81.8423 42.2874 79.2097 43.249 77.13 45.0023C75.0503 46.7556 73.6573 49.1877 73.1973 51.8687C72.7373 54.5497 73.2399 57.307 74.6163 59.6532C75.9927 61.9995 78.1541 63.7837 80.7188 64.6904V78.797C80.7188 84.1013 76.4137 88.4063 71.1094 88.4063H65.3438V6.74202C65.3434 5.85015 65.6532 4.98592 66.2201 4.2974C67.0119 3.33646 67.9114 2.37552 68.8646 1.62215C69.7103 0.961024 71.1786 8.67299e-05 73.0312 8.67299e-05C79.6077 -0.0157064 86.0079 2.12579 91.2506 6.09627C95.2866 9.23277 98.4 13.5762 99.4993 18.8268C102.021 19.019 104.327 20.0645 106.264 21.6404C109.201 24.0235 111.338 27.5982 112.683 31.3805C114.79 37.2614 115.359 44.7567 113.175 51.1373C113.729 51.3987 114.275 51.7062 114.805 52.0598C116.919 53.4667 118.526 55.4808 119.71 57.8562C122.039 62.5072 123 68.9954 123 76.8751C123 85.6465 119.656 91.5352 115.412 95.1713C113.066 97.1834 110.297 98.6416 107.31 99.4379C106.541 103.728 104.389 108.694 101.014 112.906C96.6319 118.403 89.8361 123 80.7188 123C75.0607 123 70.3022 120.54 66.7583 117.634C66.3167 117.274 65.9608 116.82 65.7161 116.306C65.4715 115.791 65.3443 115.229 65.3438 114.659V96.0938ZM38.4375 34.5938C37.4181 34.5938 36.4404 34.9988 35.7196 35.7196C34.9987 36.4405 34.5938 37.4182 34.5938 38.4376C34.5938 39.457 34.9987 40.4347 35.7196 41.1555C36.4404 41.8764 37.4181 42.2813 38.4375 42.2813C39.4569 42.2813 40.4346 41.8764 41.1554 41.1555C41.8763 40.4347 42.2812 39.457 42.2812 38.4376C42.2812 37.4182 41.8763 36.4405 41.1554 35.7196C40.4346 34.9988 39.4569 34.5938 38.4375 34.5938ZM38.4375 80.7188C37.4181 80.7188 36.4404 81.1238 35.7196 81.8446C34.9987 82.5655 34.5938 83.5432 34.5938 84.5626C34.5938 85.582 34.9987 86.5597 35.7196 87.2805C36.4404 88.0014 37.4181 88.4063 38.4375 88.4063C39.4569 88.4063 40.4346 88.0014 41.1554 87.2805C41.8763 86.5597 42.2812 85.582 42.2812 84.5626C42.2812 83.5432 41.8763 82.5655 41.1554 81.8446C40.4346 81.1238 39.4569 80.7188 38.4375 80.7188ZM84.5625 57.6563C85.5819 57.6563 86.5596 57.2514 87.2804 56.5305C88.0013 55.8097 88.4062 54.832 88.4062 53.8126C88.4062 52.7932 88.0013 51.8155 87.2804 51.0946C86.5596 50.3738 85.5819 49.9688 84.5625 49.9688C83.5431 49.9688 82.5654 50.3738 81.8446 51.0946C81.1237 51.8155 80.7188 52.7932 80.7188 53.8126C80.7188 54.832 81.1237 55.8097 81.8446 56.5305C82.5654 57.2514 83.5431 57.6563 84.5625 57.6563Z" fill="black"/>
</svg>
