<svg width="56" height="60" viewBox="0 0 56 60" fill="none" xmlns="http://www.w3.org/2000/svg">
<path d="M27.8872 22.5303C28.6027 22.53 29.2625 22.7305 29.8664 23.1316L37.3145 28.0792C38.6789 28.9707 39.9092 30.0517 41.0054 31.3224L45.9046 37.0068C46.7994 38.0322 47.1241 39.2139 46.8786 40.5519L44.4687 54.3669C44.3348 55.0805 44.0051 55.6771 43.4798 56.1568C42.9545 56.6364 42.3341 56.9209 41.6185 57.0104L23.9425 58.8899L12.1361 59.9646L11.8342 59.9647C10.9621 59.965 10.2073 59.6531 9.56978 59.029C8.93225 58.4049 8.61332 57.6468 8.61299 56.7549C8.61269 55.9298 8.91431 55.2162 9.51785 54.6139C10.1214 54.0116 10.848 53.6545 11.6977 53.5427L20.4183 52.4692L5.39138 52.4747C4.47456 52.475 3.69738 52.1408 3.05983 51.4721C2.42229 50.8034 2.12571 50.0119 2.1701 49.0976C2.2145 48.2279 2.57202 47.5031 3.24265 46.9231C3.91328 46.3431 4.68464 46.0529 5.55674 46.0526L20.3823 46.0137L2.90611 43.8794C1.98925 43.7682 1.25117 43.356 0.691876 42.6426C0.132579 41.9293 -0.0801529 41.1154 0.0536805 40.2011C0.187563 39.4206 0.573062 38.7794 1.21018 38.2775C1.8473 37.7755 2.57954 37.5244 3.40691 37.5241L3.74233 37.5239L19.8768 39.5249L8.10239 36.3851C7.25258 36.1624 6.5592 35.7 6.02227 34.9978C5.48534 34.2955 5.28381 33.5319 5.41768 32.7068C5.55155 31.904 5.92027 31.2516 6.52385 30.7497C7.12742 30.2477 7.82053 29.9966 8.60318 29.9963C8.73735 29.9963 8.96098 30.0185 9.27405 30.063L24.3021 33.2685L31.5812 34.5034C31.6036 34.5034 31.6371 34.5089 31.6818 34.5201C31.7266 34.5312 31.7601 34.5368 31.7825 34.5368C32.2968 34.5366 32.6377 34.28 32.8052 33.7671C32.9727 33.2542 32.8328 32.8528 32.3855 32.5631L26.1451 28.3844C25.3623 27.8718 24.8924 27.164 24.7356 26.2609C24.5787 25.3579 24.7797 24.5383 25.3384 23.8023C25.9419 22.9547 26.7915 22.5307 27.8872 22.5303ZM25.5417 29.2877L31.7821 33.4664L24.4694 32.2315L24.3017 32.1647L23.0937 30.8941L15.1075 22.1336C15.0851 22.1113 15.0571 22.0723 15.0236 22.0166C14.99 21.9608 14.962 21.9218 14.9397 21.8995C14.4028 21.2084 14.1956 20.4281 14.3183 19.5584C14.441 18.6887 14.86 17.975 15.5753 17.4172C16.2684 16.9041 17.0286 16.7087 17.856 16.831C18.6834 16.9534 19.3991 17.3266 20.0031 17.9508L24.7679 22.8659C24.7232 22.8882 24.6673 22.9273 24.6002 22.983C24.5332 23.0388 24.4884 23.089 24.4661 23.1336C23.7509 24.1373 23.4942 25.2412 23.6958 26.4453C23.8975 27.6493 24.5128 28.5968 25.5417 29.2877ZM55.288 14.0913L55.7944 22.9883C55.8844 24.6161 55.7621 26.2551 55.4272 27.9054L53.8199 35.2311C53.552 36.5468 52.8033 37.5171 51.5736 38.1419L48.0188 39.9494C48.0631 38.5669 47.6266 37.3518 46.7094 36.3041L41.8101 30.6197C40.6245 29.2599 39.3159 28.1119 37.8844 27.1759L30.4363 22.2283C29.6758 21.7157 28.826 21.4596 27.8868 21.4599C26.7464 21.4604 25.7626 21.8732 24.9355 22.6986L17.0493 12.2657C16.49 11.53 16.2884 10.7106 16.4446 9.80743C16.6008 8.90427 17.059 8.19612 17.8191 7.68297C18.5568 7.19212 19.3562 7.03574 20.2172 7.21381C21.0782 7.39189 21.7771 7.83761 22.3141 8.55097L31.2406 20.3215L22.447 5.10576C21.9771 4.32547 21.8594 3.48931 22.0939 2.59727C22.3283 1.70523 22.8592 1.04722 23.6864 0.62324C24.4689 0.221574 25.2795 0.154381 26.1181 0.421659C26.9568 0.688937 27.5998 1.20157 28.0473 1.95957L36.1361 16.0049L31.5703 4.73448C31.2346 3.95415 31.184 3.12911 31.4184 2.25937C31.6529 1.38963 32.1502 0.76508 32.9104 0.385721C33.7376 -0.0382595 34.5873 -0.105467 35.4595 0.184097C36.3317 0.473662 36.958 1.04205 37.3385 1.88927L43.8172 15.7679L47.2074 22.3225C47.3864 22.6569 47.6436 22.852 47.9791 22.9076C48.3145 22.9632 48.6163 22.8795 48.8846 22.6564C49.1529 22.4333 49.2757 22.1434 49.2532 21.7866L48.848 14.2943C48.8029 13.3801 49.0933 12.5884 49.7192 11.9192C50.3451 11.25 51.1164 10.9041 52.0332 10.8815C52.9053 10.8811 53.6546 11.1986 54.2809 11.8339C54.9073 12.4692 55.243 13.2217 55.288 14.0913Z" fill="black"/>
</svg>
