<svg width="90" height="90" viewBox="0 0 90 90" fill="none" xmlns="http://www.w3.org/2000/svg">
<path d="M4.7201 0L0 4.71992L85.2832 90L90 85.2834L64.2707 59.5583C69.2204 52.2242 74.5244 42.3678 74.5244 31.8783C74.5244 17.4135 62.7487 5.63833 48.2834 5.63833C43.4167 5.639 38.6456 6.99031 34.5015 9.54182C30.3573 12.0933 27.0026 15.7449 24.8108 20.09L4.7201 0ZM48.2834 12.1983C59.1373 12.1983 67.9641 21.0248 67.9641 31.8783C67.9641 40.18 63.7885 48.38 59.5572 54.8384L38.5447 33.8267C39.1647 28.8935 43.1336 25.3183 48.2834 25.3183C51.8194 25.3183 55.152 27.2535 56.8937 30.34L62.5323 27.06C61.1024 24.5408 59.0306 22.4455 56.5277 20.9872C54.0248 19.529 51.1802 18.7599 48.2834 18.7583C41.4673 18.7583 35.7271 22.7042 33.2145 28.4967L29.8327 25.115C31.2149 21.3315 33.7257 18.0637 37.0256 15.7535C40.3254 13.4434 44.2552 12.2024 48.2834 12.1983ZM29.1144 42.8467L28.6027 43.2567V44.9984C28.6027 49.6888 32.588 51.4928 35.2646 52.6867C37.7247 53.7757 38.443 54.2217 38.443 54.8384C38.443 57.095 34.8939 58.1184 31.5745 58.1184V64.6784C38.0068 64.6784 42.6449 62.1429 44.2849 58.1184L29.1144 42.8467ZM22.0424 64.6784V67.9584C22.0424 77.0046 29.3965 84.3584 38.443 84.3584C47.9751 84.3584 51.5635 78.3232 54.4336 73.4918C55.1225 72.3405 55.7654 71.2515 56.4837 70.2117L51.7669 65.4984C51.6915 65.6132 51.639 65.8067 51.5635 65.9084C50.527 67.3319 49.6283 68.8046 48.7951 70.215C46.0529 74.8136 44.2489 77.7984 38.443 77.7984C33.0243 77.7984 28.6027 73.3769 28.6027 67.9584V64.6784H22.0424Z" fill="black"/>
</svg>
