<svg width="104" height="83" viewBox="0 0 104 83" fill="none" xmlns="http://www.w3.org/2000/svg">
<g clip-path="url(#clip0_45_186)">
<path d="M33.041 0.328738C34.0498 1.29015 33.6372 2.29999 30.7218 5.93815C28.9518 7.81565 27.5763 10.0274 26.6762 12.4433L26.6311 12.5782C26.3087 13.7817 26.4266 13.8162 27.6711 12.8859C29.3555 11.6472 31.1321 10.5385 32.9855 9.56941L33.2178 9.45874C33.9527 9.07486 35.5196 8.28982 35.582 8.28982C35.6444 8.28982 35.9114 8.14457 36.2684 7.97511C38.3167 6.96352 40.4824 6.20849 42.7164 5.7272L42.9071 5.69261C45.826 5.36061 47.6738 6.74395 46.9908 8.73595C46.6892 9.61782 46.1796 9.97403 44.1031 10.7245C42.8724 11.1741 42.3143 11.385 41.9087 11.5545L40.6607 12.1078C39.3817 12.6419 38.1401 13.2612 36.9444 13.9615L37.0935 13.8785C35.8923 14.5952 34.7421 15.3936 33.6511 16.2682L33.71 16.2232C32.8797 16.8802 32.1094 17.6093 31.4082 18.402L31.3908 18.4227C31.4671 18.5438 32.0218 18.523 32.5348 18.3743C35.864 17.6975 39.2759 17.5204 42.6575 17.8487L42.5188 17.8383C49.7295 18.734 56.3855 23.3232 54.4858 26.1141C53.6538 27.3522 52.7178 27.4075 50.5788 26.3562C47.5004 24.5807 44.0051 23.6511 40.4492 23.6621C38.4871 23.6621 36.5943 23.9388 34.7986 24.4541L34.9407 24.4195C32.7914 25.0489 32.7844 25.2495 34.913 25.3429C35.4468 25.3532 35.9564 25.3947 36.4626 25.4604L36.3932 25.4535C36.6394 25.5158 36.934 25.5677 37.2391 25.5988L37.2634 25.6022C38.2236 25.7302 39.0834 25.9239 39.9084 26.1867L39.801 26.1556C41.6273 26.6268 43.3592 27.407 44.9212 28.4623L44.8623 28.4242C46.9423 29.9667 48.7103 31.7823 50.1524 33.84L50.201 33.9161C52.482 36.9802 52.7559 40.1618 50.7799 40.812C49.5388 41.2201 48.79 40.6771 47.4519 38.3912C46.7042 36.8223 45.5992 35.4495 44.225 34.3824C42.8508 33.3154 41.2456 32.5837 39.5375 32.2457L39.4682 32.2353C38.5202 32.0936 37.5542 32.1276 36.6186 32.3356L36.6706 32.3252C29.3975 33.3385 25.338 42.3924 30.278 46.5874C32.225 48.0061 34.575 48.7682 36.986 48.7627C40.4354 48.7627 43.5276 47.2376 45.6215 44.8237L45.6354 44.8098C47.9546 42.223 49.0327 41.604 50.2876 42.14C53.0055 43.3055 49.369 49.5962 44.2036 52.6533C43.7287 52.93 41.6348 53.9364 41.1287 54.1231L40.2378 54.4517C40.0194 54.5312 39.6346 54.6453 39.3919 54.7283L38.2826 55.0292C34.1593 55.9023 29.9385 56.2279 25.7298 55.9975L25.8511 56.0045C18.3631 56.1428 17.4618 56.3641 13.4612 59.0478C12.3173 59.8107 11.1948 60.6053 10.0951 61.4306C9.0447 62.2018 9.0863 62.2018 7.90417 61.5205C5.38516 60.2032 3.30116 58.1881 1.90268 55.7175C0.504202 53.2469 -0.149219 50.426 0.0209695 47.5938L0.0175028 47.6353C0.0799028 46.6151 0.0175029 46.7119 1.3695 45.7712C4.39937 43.6617 9.6063 39.7226 9.82817 39.3733C9.90444 39.2557 10.6012 35.8251 10.7087 35.0815C10.7376 34.8532 10.7851 34.6277 10.8508 34.4072L10.8439 34.4348C10.9063 34.2412 10.9618 33.9991 11.0034 33.7535L11.0068 33.7224C11.0796 33.297 11.3327 32.0866 11.7279 30.2779C12.4871 27.0928 13.2844 24.4783 14.2135 21.9295L14.0471 22.4517C14.1839 22.144 14.3122 21.8326 14.4319 21.5179C17.2672 14.3222 21.6285 7.82305 27.217 2.46599L27.2343 2.4487C29.7927 0.328738 32.1362 -0.54622 33.0306 0.30453L33.041 0.328738ZM96.2903 21.4177C98.2253 22.4454 99.9174 23.8742 101.253 25.6082C102.589 27.3422 103.537 29.3412 104.035 31.471L104.056 31.5748C104.265 33.0185 104.328 34.4794 104.246 35.9357L104.25 35.8804C104.173 36.3853 104.156 36.3992 100.554 38.903C99.913 39.3526 98.1138 40.6944 97.2263 41.393C96.8415 41.6904 96.1516 42.223 95.6802 42.6034C94.6367 43.4127 94.2935 43.7758 94.2935 44.0939C94.2935 44.2254 94.1479 45.0139 93.978 45.8473C93.8082 46.6808 93.6071 47.6595 93.5412 48.0261C92.985 50.9741 92.3015 53.8968 91.4924 56.786C90.6129 59.8063 89.4414 62.7343 87.9946 65.5287C86.3964 68.7207 84.7359 71.439 82.8812 74.0085L83.0026 73.8287L82.0215 75.1775C77.9655 80.7454 72.3148 84.4631 71.0287 82.4054C70.4047 81.399 70.8484 80.4687 73.5074 77.1487C74.5647 75.9141 75.57 74.548 76.4714 73.1128L76.558 72.9676C76.6343 72.8223 76.7903 72.518 76.9116 72.3001C77.3767 71.4542 77.6877 70.5327 77.8303 69.5784L77.8372 69.5335C77.7714 69.326 77.501 69.4435 76.8042 69.9727C74.5127 71.6499 71.9162 73.2027 69.1775 74.5065L68.8828 74.631L67.7111 75.1844C66.6954 75.6512 64.2202 76.6057 63.3535 76.8651C62.4186 77.2697 61.3983 77.4383 60.3826 77.3562H60.4034C58.781 77.3009 57.845 76.8582 57.37 75.9279C57.1513 75.3843 57.1422 74.7791 57.3445 74.2292C57.5468 73.6793 57.9462 73.2237 58.4655 72.9503L58.4794 72.9434C58.7844 72.7912 59.1727 72.6252 59.5714 72.4799L59.6546 72.4523C60.5143 72.1514 61.8108 71.6707 61.9738 71.5946C62.2226 71.4815 62.4747 71.3754 62.7295 71.2765C66.3011 69.9049 69.5649 67.8409 72.3322 65.2036L72.3218 65.214C72.9146 64.6365 73.0532 64.3356 72.6892 64.4186C71.4551 64.7264 69.9159 65.003 68.3524 65.1898L68.1652 65.2071C65.1638 65.4851 62.1376 65.3149 59.1866 64.7022L59.3842 64.7367C52.6935 63.1148 47.9234 59.0236 49.9548 56.6408C50.8943 55.5341 51.5391 55.5756 54.1738 56.8587C54.621 57.0973 55.1791 57.3567 55.7511 57.5884L55.869 57.6299C55.9487 57.6333 56.0215 57.6645 56.0804 57.7129C56.8674 58.0552 57.8276 58.3838 58.8156 58.6432L58.9612 58.6743C60.4519 59.117 62.161 59.3729 63.9324 59.3729C65.6554 59.3729 67.3228 59.1308 68.9036 58.6777L68.7754 58.7089C70.4116 58.2316 70.6092 58.1555 70.7514 57.9688C70.9455 57.7163 70.7687 57.661 69.7356 57.6472C67.1666 57.5564 64.6319 57.029 62.2407 56.0875L62.3932 56.1393C60.1258 55.1717 58.0855 53.743 56.4028 51.9444L56.3924 51.934C56.1151 51.6227 55.8378 51.3046 55.765 51.2319C54.2729 49.5788 53.0968 47.6671 52.2948 45.5914L52.2532 45.4669C51.6986 43.2259 52.9951 41.5728 54.8082 42.2507C55.453 42.4927 55.817 42.8939 56.5658 44.2046C59.8279 49.8832 64.1578 51.9513 69.2711 50.2429C71.5522 49.5246 73.4872 47.9917 74.7053 45.938C75.9233 43.8843 76.3387 41.4543 75.8716 39.1139L75.882 39.1762C74.7242 35.2129 68.8586 33.0895 63.7487 34.8083C61.2447 35.6768 59.0599 37.2756 57.4775 39.3975L57.4532 39.4321C56.33 40.6529 55.8135 40.9365 54.7492 40.9365C53.2308 40.9365 52.5652 39.6949 53.2655 38.1698C53.3427 38.0165 53.4065 37.8568 53.4562 37.6926L53.4596 37.6718C53.8722 36.7208 54.3263 35.9081 54.8463 35.1472L54.8116 35.1991C56.0114 33.4712 57.5317 31.9886 59.2906 30.8312L59.353 30.7932C62.741 28.6865 66.6033 27.4584 70.5884 27.2207L70.6578 27.2173C71.0738 27.1758 75.005 27.072 80.8636 26.9406C83.4264 27.0706 85.9829 26.5831 88.317 25.5192L88.2164 25.5607C90.4365 24.2785 92.5665 22.8468 94.5916 21.2759L94.4668 21.3692C95.129 20.8159 95.226 20.8332 96.2868 21.4453L96.2903 21.4177Z" fill="black"/>
</g>
<defs>
<clipPath id="clip0_45_186">
<rect width="104" height="83" fill="white"/>
</clipPath>
</defs>
</svg>
