<svg width="96" height="103" viewBox="0 0 96 103" fill="none" xmlns="http://www.w3.org/2000/svg">
<path d="M35.5932 19.7075C41.2419 19.7075 45.8211 15.2958 45.8211 9.85374C45.8211 4.41167 41.2419 0 35.5932 0C29.9444 0 25.3652 4.41167 25.3652 9.85374C25.3652 15.2958 29.9444 19.7075 35.5932 19.7075Z" fill="black"/>
<path d="M95.1302 99.1174L95.1445 99.1092L65.2273 49.1874C65.7617 48.4857 66.0507 47.6384 66.0524 46.7681C66.0516 45.9424 65.7941 45.1358 65.3131 44.4524C64.8322 43.769 64.1498 43.2401 63.3539 42.9338L54.7234 38.135L41.6253 25.5161C40.6679 24.3762 39.458 23.4571 38.0842 22.8261C36.7104 22.195 35.2075 21.8681 33.6855 21.8692C32.3086 21.8684 30.9459 22.1365 29.6796 22.6572C28.4133 23.1779 27.2696 23.9405 26.3177 24.8989L11.1131 39.5458L11.1303 39.5624C11.0054 39.6534 10.9038 39.7708 10.8332 39.9055C10.7625 40.0401 10.7247 40.1886 10.7227 40.3394C10.7227 40.4166 10.7513 40.4827 10.7685 40.5544H10.727V57.053C10.727 57.0654 10.7227 57.0765 10.7227 57.0875C10.7433 58.1715 11.2047 59.2045 12.0077 59.9642C12.8107 60.7238 13.8911 61.1494 15.0165 61.1494C16.1419 61.1494 17.2224 60.7238 18.0254 59.9642C18.8284 59.2045 19.2898 58.1715 19.3103 57.0875L19.3075 57.0544V43.263L24.5258 38.2356V64.1471H24.5273L14.5825 80.7409L1.86768 92.9905L1.91487 93.036C1.31206 93.5719 0.830776 94.222 0.501245 94.9457C0.171715 95.6693 0.00106095 96.4507 0 97.2409C-2.24676e-08 97.9973 0.154666 98.7463 0.455164 99.4452C0.755663 100.144 1.1961 100.779 1.75134 101.314C2.30657 101.848 2.96572 102.273 3.69114 102.562C4.41656 102.851 5.19403 103 5.97916 103C7.86257 103 9.52003 102.144 10.6169 100.836L24.3399 87.6145L24.287 87.5636L35.8649 68.2418L46.0242 78.0294L59.2267 100.06L59.2782 100.031C60.3007 101.792 62.2327 102.997 64.4765 102.997C65.2616 102.997 66.0391 102.849 66.7645 102.559C67.4899 102.27 68.1491 101.846 68.7043 101.311C69.2596 100.776 69.7 100.141 70.0005 99.4424C70.301 98.7436 70.4557 97.9946 70.4557 97.2382C70.4557 95.9775 70.0238 94.8216 69.3116 93.8723L55.5442 70.8995L55.5271 70.9092L43.1154 58.953V38.5607L49.4807 44.6932L49.4793 44.6959L49.4893 44.7014L49.525 44.7359L49.535 44.7262L59.3268 50.1739C59.404 50.2249 59.4884 50.2621 59.5685 50.3089L59.6085 50.331V50.3296C60.242 50.685 60.9699 50.9041 61.7565 50.9041C62.0268 50.9041 62.2885 50.8738 62.5459 50.8269L92.3144 100.501C92.333 100.545 92.363 100.579 92.3859 100.621L92.3959 100.637H92.3973C92.5625 100.942 92.8287 101.184 93.1535 101.326C93.4783 101.468 93.8431 101.501 94.1897 101.42C94.5362 101.339 94.8447 101.149 95.066 100.879C95.2872 100.61 95.4085 100.277 95.4105 99.9331C95.4036 99.6404 95.306 99.3563 95.1302 99.1174Z" fill="black"/>
</svg>
