<svg width="62" height="62" viewBox="0 0 62 62" fill="none" xmlns="http://www.w3.org/2000/svg">
<path d="M18.3139 15.2722C19.9317 15.2722 21.4833 15.9149 22.6273 17.0589C23.7712 18.2029 24.4139 19.7544 24.4139 21.3722V36.6222C24.4139 38.2401 23.7712 39.7916 22.6273 40.9356C21.4833 42.0796 19.9317 42.7222 18.3139 42.7222C16.6961 42.7222 15.1445 42.0796 14.0006 40.9356C12.8566 39.7916 12.2139 38.2401 12.2139 36.6222V21.3722C12.2139 19.7544 12.8566 18.2029 14.0006 17.0589C15.1445 15.9149 16.6961 15.2722 18.3139 15.2722ZM36.6139 36.6222C36.6139 45.6807 30.0259 53.2142 21.3639 54.6782V61.0222H15.2639V54.6782C6.60192 53.2142 0.013916 45.6807 0.013916 36.6222H6.11392C6.11392 39.8579 7.39927 42.961 9.68721 45.2489C11.9752 47.5369 15.0783 48.8222 18.3139 48.8222C21.5496 48.8222 24.6527 47.5369 26.9406 45.2489C29.2286 42.961 30.5139 39.8579 30.5139 36.6222H36.6139ZM59.2144 22.6227L46.2824 35.5852L49.3629 24.4222H36.6139C34.9961 24.4222 33.4445 23.7796 32.3006 22.6356C31.1566 21.4916 30.5139 19.9401 30.5139 18.3222V6.12225C30.5139 4.50443 31.1566 2.95287 32.3006 1.8089C33.4445 0.664924 34.9961 0.0222473 36.6139 0.0222473H54.9139C56.5317 0.0222473 58.0833 0.664924 59.2273 1.8089C60.3712 2.95287 61.0139 4.50443 61.0139 6.12225V18.3222C61.0139 19.9997 60.3429 21.5247 59.2144 22.6227Z" fill="black"/>
</svg>
