<svg width="225" height="58" viewBox="0 0 225 58" fill="none" xmlns="http://www.w3.org/2000/svg">
<path d="M20.4375 0.492188C35.724 0.492188 43.3672 5.10156 43.3672 14.3203C43.3672 18.0703 41.987 21.1953 39.2266 23.6953C36.3359 26.2995 32.4036 27.7057 27.4297 27.9141V28.0703C30.138 28.7214 32.2344 30.0885 33.7188 32.1719C34.5 33.2656 35.3594 35.0104 36.2969 37.4062C37.2344 39.776 37.9766 41.6641 38.5234 43.0703C39.0703 44.4505 39.6172 45.7005 40.1641 46.8203C41.388 49.3464 42.4688 50.6094 43.4062 50.6094C43.7969 50.6094 44.1354 50.4401 44.4219 50.1016C44.7083 49.737 44.9948 49.3333 45.2812 48.8906C46.0885 47.7708 46.8177 47.2109 47.4688 47.2109C47.5469 47.2109 47.7292 47.2891 48.0156 47.4453C48.3021 47.5755 48.4453 47.849 48.4453 48.2656C48.4453 48.6823 48.3542 49.125 48.1719 49.5938C46.6875 51.9635 45.5677 53.513 44.8125 54.2422C43.1979 55.8307 41.401 56.625 39.4219 56.625C37.4688 56.625 35.9062 56.3125 34.7344 55.6875C33.5885 55.0625 32.625 54.2292 31.8438 53.1875C31.0625 52.1198 30.4245 50.8958 29.9297 49.5156C29.4609 48.1354 29.0312 46.6901 28.6406 45.1797C28.276 43.6693 27.9115 42.1458 27.5469 40.6094C27.1823 39.0729 26.7266 37.6146 26.1797 36.2344C24.9297 33.1354 23.1979 31.0391 20.9844 29.9453C20.4375 29.6589 19.7734 29.3594 18.9922 29.0469V25.8438C26.362 25.8438 30.8281 23.7734 32.3906 19.6328C32.9115 18.2005 33.1719 16.5078 33.1719 14.5547C33.1719 11.0391 32.1432 8.30469 30.0859 6.35156C28.0286 4.39844 24.8776 3.42188 20.6328 3.42188C19.8776 3.42188 19.3307 3.46094 18.9922 3.53906V0.492188H20.4375ZM15.75 46.7031C15.75 48.4219 15.8021 49.6328 15.9062 50.3359C16.0104 51.0391 16.2448 51.5469 16.6094 51.8594C17 52.1719 17.4557 52.4193 17.9766 52.6016C18.4974 52.7578 19.0443 52.901 19.6172 53.0312C20.1901 53.1615 20.724 53.3828 21.2188 53.6953V56H0.515625V53.6953C0.90625 53.3828 1.375 53.1615 1.92188 53.0312C2.46875 52.901 3.01562 52.7448 3.5625 52.5625C4.86458 52.1719 5.59375 51.4427 5.75 50.375C5.90625 49.2812 5.98438 48.0312 5.98438 46.625V9.82812C5.98438 6.9375 5.64583 5.21875 4.96875 4.67188C4.42188 4.22917 3.65365 3.89062 2.66406 3.65625C1.70052 3.39583 0.984375 3.10938 0.515625 2.79688V0.492188H15.75V46.7031ZM77.5469 32.7188C77.5469 25.2188 75.6719 21 71.9219 20.0625V16.7031C76.7917 17.1458 80.5417 19.1901 83.1719 22.8359C85.6458 26.2474 86.8828 30.6875 86.8828 36.1562H64.7734V32.7188H77.5469ZM72.0781 53.6172C76.6094 53.4089 79.8255 51.2734 81.7266 47.2109C82.2734 46.0391 82.7422 44.8411 83.1328 43.6172L86.4922 44.8672C85.0339 50.3099 82.0521 53.9688 77.5469 55.8438C75.9583 56.4948 74.1354 56.8854 72.0781 57.0156V53.6172ZM61.4922 34.3984C61.4922 45.5964 63.9401 51.8984 68.8359 53.3047V56.8984C63.7318 56.3255 59.6823 54.2031 56.6875 50.5312C53.6927 46.9115 52.1953 42.3672 52.1953 36.8984C52.1953 31.1432 53.6927 26.4167 56.6875 22.7188C59.7083 18.9948 63.7057 16.9766 68.6797 16.6641V19.9062C63.888 20.4792 61.4922 25.3099 61.4922 34.3984ZM112 42.7578L117.195 28.5781C118.289 25.5833 118.836 23.7474 118.836 23.0703C118.836 22.3672 118.654 21.8724 118.289 21.5859C117.951 21.2995 117.521 21.0911 117 20.9609C116.505 20.8047 115.971 20.6875 115.398 20.6094C114.852 20.5052 114.357 20.349 113.914 20.1406V17.6797H128.289V20.1406C127.977 20.375 127.599 20.5443 127.156 20.6484C126.74 20.7526 126.297 20.8958 125.828 21.0781C124.5 21.625 123.589 22.7188 123.094 24.3594C123.016 24.6198 122.924 24.8672 122.82 25.1016L114.07 48.0703L112 42.7578ZM112.703 51.7812L110.789 56.7812H106.297L93.3281 23.1875C92.9896 22.276 92.2604 21.5859 91.1406 21.1172C89.8646 20.5964 89.0182 20.1146 88.6016 19.6719V17.6797H106.844V20.0625C106.401 20.2969 105.906 20.4661 105.359 20.5703C104.812 20.6745 104.292 20.7917 103.797 20.9219C102.677 21.2604 102.117 21.8333 102.117 22.6406C102.117 23.1615 102.221 23.6823 102.43 24.2031C102.664 24.724 102.951 25.4922 103.289 26.5078C103.654 27.5234 104.083 28.7214 104.578 30.1016C105.099 31.4557 105.659 32.9401 106.258 34.5547C106.857 36.1693 107.508 37.9271 108.211 39.8281C108.914 41.7292 109.695 43.8125 110.555 46.0781L112.703 51.7812ZM143.602 17.2109V49.8281C143.602 51.0521 144.135 51.9375 145.203 52.4844C145.698 52.7448 146.232 52.9792 146.805 53.1875C147.378 53.3698 147.938 53.6172 148.484 53.9297V56H130.32V53.9297C130.867 53.6172 131.427 53.3698 132 53.1875C132.599 52.9792 133.146 52.7448 133.641 52.4844C134.734 51.9375 135.281 51.0521 135.281 49.8281V23.6953C135.281 22.3151 134.76 21.3646 133.719 20.8438C133.25 20.6094 132.716 20.4271 132.117 20.2969C131.518 20.1406 130.919 19.9062 130.32 19.5938V17.4453L143.602 17.2109ZM133.836 5.10156C133.836 3.59115 134.318 2.38021 135.281 1.46875C136.245 0.53125 137.286 0.0625 138.406 0.0625C139.552 0.0625 140.438 0.192708 141.062 0.453125C141.714 0.6875 142.273 1.02604 142.742 1.46875C143.732 2.40625 144.227 3.61719 144.227 5.10156C144.227 6.5599 143.732 7.75781 142.742 8.69531C141.779 9.60677 140.529 10.0625 138.992 10.0625C137.482 10.0625 136.245 9.60677 135.281 8.69531C134.318 7.78385 133.836 6.58594 133.836 5.10156ZM172.938 42.7578L178.133 28.5781C179.227 25.5833 179.773 23.7474 179.773 23.0703C179.773 22.3672 179.591 21.8724 179.227 21.5859C178.888 21.2995 178.458 21.0911 177.938 20.9609C177.443 20.8047 176.909 20.6875 176.336 20.6094C175.789 20.5052 175.294 20.349 174.852 20.1406V17.6797H189.227V20.1406C188.914 20.375 188.536 20.5443 188.094 20.6484C187.677 20.7526 187.234 20.8958 186.766 21.0781C185.438 21.625 184.526 22.7188 184.031 24.3594C183.953 24.6198 183.862 24.8672 183.758 25.1016L175.008 48.0703L172.938 42.7578ZM173.641 51.7812L171.727 56.7812H167.234L154.266 23.1875C153.927 22.276 153.198 21.5859 152.078 21.1172C150.802 20.5964 149.956 20.1146 149.539 19.6719V17.6797H167.781V20.0625C167.339 20.2969 166.844 20.4661 166.297 20.5703C165.75 20.6745 165.229 20.7917 164.734 20.9219C163.615 21.2604 163.055 21.8333 163.055 22.6406C163.055 23.1615 163.159 23.6823 163.367 24.2031C163.602 24.724 163.888 25.4922 164.227 26.5078C164.591 27.5234 165.021 28.7214 165.516 30.1016C166.036 31.4557 166.596 32.9401 167.195 34.5547C167.794 36.1693 168.445 37.9271 169.148 39.8281C169.852 41.7292 170.633 43.8125 171.492 46.0781L173.641 51.7812ZM215.594 32.7188C215.594 25.2188 213.719 21 209.969 20.0625V16.7031C214.839 17.1458 218.589 19.1901 221.219 22.8359C223.693 26.2474 224.93 30.6875 224.93 36.1562H202.82V32.7188H215.594ZM210.125 53.6172C214.656 53.4089 217.872 51.2734 219.773 47.2109C220.32 46.0391 220.789 44.8411 221.18 43.6172L224.539 44.8672C223.081 50.3099 220.099 53.9688 215.594 55.8438C214.005 56.4948 212.182 56.8854 210.125 57.0156V53.6172ZM199.539 34.3984C199.539 45.5964 201.987 51.8984 206.883 53.3047V56.8984C201.779 56.3255 197.729 54.2031 194.734 50.5312C191.74 46.9115 190.242 42.3672 190.242 36.8984C190.242 31.1432 191.74 26.4167 194.734 22.7188C197.755 18.9948 201.753 16.9766 206.727 16.6641V19.9062C201.935 20.4792 199.539 25.3099 199.539 34.3984Z" fill="black"/>
</svg>
