<svg width="64" height="64" viewBox="0 0 64 64" fill="none" xmlns="http://www.w3.org/2000/svg">
<path fill-rule="evenodd" clip-rule="evenodd" d="M31.92 59.872C47.5776 59.872 60.271 47.1787 60.271 31.5211C60.271 15.8635 47.5776 3.1701 31.92 3.1701C16.2624 3.1701 3.56905 15.8635 3.56905 31.5211C3.56905 47.1787 16.2624 59.872 31.92 59.872ZM31.92 63.0222C49.3181 63.0222 63.4211 48.9191 63.4211 31.5211C63.4211 14.123 49.3181 0.019989 31.92 0.019989C14.522 0.019989 0.418945 14.123 0.418945 31.5211C0.418945 48.9191 14.522 63.0222 31.92 63.0222Z" fill="black"/>
<path d="M13.0193 49.839C13.0193 48.2119 14.2352 46.8369 15.8544 46.6574C28.0059 45.3123 35.8891 45.4335 48.0138 46.6873C48.6193 46.7509 49.1932 46.9894 49.6653 47.3737C50.1374 47.7581 50.4874 48.2716 50.6725 48.8516C50.8576 49.4316 50.8698 50.0529 50.7075 50.6397C50.5453 51.2265 50.2157 51.7533 49.759 52.1559C35.4496 64.6287 27.272 64.457 14.0273 52.1685C13.3816 51.5699 13.0193 50.7194 13.0193 49.8405V49.839Z" fill="black"/>
<path fill-rule="evenodd" clip-rule="evenodd" d="M47.8517 48.2529C35.823 47.0086 28.0533 46.892 16.0262 48.2229C15.2166 48.3127 14.5945 49.0042 14.5945 49.8405C14.5945 50.291 14.7819 50.7178 15.0985 51.0139C21.6633 57.1031 26.6373 59.8547 31.4995 59.872C36.379 59.8894 41.6208 57.1598 48.7243 50.9698C48.95 50.769 49.1124 50.5069 49.1919 50.2154C49.2714 49.9239 49.2646 49.6156 49.1721 49.328C49.0797 49.0404 48.9057 48.7858 48.6713 48.5952C48.4369 48.4046 48.1522 48.2862 47.8517 48.2544V48.2529ZM15.6812 45.0917C27.9604 43.7324 35.9585 43.8553 48.1778 45.1201C49.0886 45.2151 49.952 45.5737 50.6622 46.1519C51.3724 46.7301 51.8986 47.5029 52.1764 48.3755C52.4542 49.2482 52.4715 50.1829 52.2262 51.0653C51.981 51.9476 51.4838 52.7393 50.7955 53.3434C43.5896 59.6247 37.5887 63.0458 31.4901 63.0221C25.3741 63.0001 19.6378 59.5208 12.958 53.323C12.4797 52.8775 12.0985 52.3382 11.838 51.7387C11.5776 51.1392 11.4436 50.4925 11.4443 49.8389C11.442 48.6646 11.8731 47.5307 12.6549 46.6545C13.4367 45.7782 14.5143 45.2212 15.6812 45.0901V45.0917Z" fill="black"/>
<path d="M44.5204 25.2209C44.5204 28.5627 43.1929 31.7677 40.8299 34.1307C38.4668 36.4937 35.2619 37.8213 31.92 37.8213C28.5782 37.8213 25.3732 36.4937 23.0102 34.1307C20.6471 31.7677 19.3196 28.5627 19.3196 25.2209C19.3196 21.879 20.6471 18.674 23.0102 16.311C25.3732 13.948 28.5782 12.6204 31.92 12.6204C35.2619 12.6204 38.4668 13.948 40.8299 16.311C43.1929 18.674 44.5204 21.879 44.5204 25.2209Z" fill="black"/>
<path fill-rule="evenodd" clip-rule="evenodd" d="M31.92 34.6712C34.4264 34.6712 36.8301 33.6755 38.6024 31.9032C40.3747 30.131 41.3703 27.7272 41.3703 25.2209C41.3703 22.7145 40.3747 20.3107 38.6024 18.5385C36.8301 16.7662 34.4264 15.7705 31.92 15.7705C29.4136 15.7705 27.0099 16.7662 25.2376 18.5385C23.4653 20.3107 22.4697 22.7145 22.4697 25.2209C22.4697 27.7272 23.4653 30.131 25.2376 31.9032C27.0099 33.6755 29.4136 34.6712 31.92 34.6712ZM31.92 37.8213C35.2619 37.8213 38.4668 36.4937 40.8299 34.1307C43.1929 31.7677 44.5204 28.5627 44.5204 25.2209C44.5204 21.879 43.1929 18.674 40.8299 16.311C38.4668 13.948 35.2619 12.6204 31.92 12.6204C28.5782 12.6204 25.3732 13.948 23.0102 16.311C20.6471 18.674 19.3196 21.879 19.3196 25.2209C19.3196 28.5627 20.6471 31.7677 23.0102 34.1307C25.3732 36.4937 28.5782 37.8213 31.92 37.8213Z" fill="black"/>
</svg>
