<svg width="237" height="254" viewBox="0 0 237 254" fill="none" xmlns="http://www.w3.org/2000/svg">
<path d="M92.4132 0C78.5313 0.099695 67.533 10.7643 66.9409 25.2082C67.0418 39.2633 77.8165 50.157 92.4132 50.6942C105.411 50.5181 116.957 39.7986 117.614 25.2082C117.516 11.2103 106.804 0.638175 92.4132 0ZM99.4557 56.3827C93.6746 56.3827 88.7966 58.3248 84.8218 62.2101C81.5924 65.4522 77.9769 72.6032 79.1348 78.3431H78.8637L93.7688 150.178C95.3061 158.406 102.076 163.711 111.114 164.273C131.876 164.216 154.389 163.745 175.608 164.002L211.383 226.351C215.408 234.849 225.716 236.639 233.199 230.419C236.789 226.856 238.24 220.794 235.771 215.51L194.309 143.398C191.322 137.215 185.428 133.732 178.048 133.37H131.977L126.561 106.806H162.601C170.392 107.382 176.005 101.435 174.391 93.2525C173.206 89.2545 169.064 85.5737 164.228 85.388H121.952C119.822 74.495 120.161 67.9101 111.789 60.4509C108.266 57.7399 104.153 56.3827 99.4557 56.3827ZM60.5793 87.1273C59.4339 87.1439 58.2938 87.288 57.1803 87.5572C41.2157 93.7707 26.8533 104.448 15.7182 119.274C5.90619 133.114 0.420465 149.774 0 168.07C0.163361 189.753 9.47178 212.005 26.1535 228.792C42.322 244.195 64.7645 253.493 88.8887 254C106.484 253.903 124.074 248.705 140.111 238.416C154.515 228.629 165.803 214.585 172.626 197.075C173.891 194.002 174.976 190.564 175.879 186.769C177.202 180.803 173.854 175.957 167.481 174.03C161.684 172.745 156.5 175.944 154.474 182.166C153.935 184.863 153.118 187.496 152.034 190.024C147.431 202.196 138.865 212.732 127.507 220.927C116.464 228.439 103.239 232.529 88.8887 232.853C71.8227 232.732 55.3844 226.225 41.6008 213.883C29.7574 202.397 22.3483 185.961 21.9543 168.07C22.0301 155.316 26.1361 142.73 33.8772 131.339C41.4686 120.797 52.0958 112.655 65.043 107.348C70.4989 105.558 73.4381 99.9079 71.5434 93.7948C69.7132 89.4004 65.4017 87.0621 60.5793 87.1273V87.1273Z" fill="black"/>
</svg>
